<?xml version="1.0" encoding="UTF-8" standalone="no"?>
<svg
   xmlns:dc="http://purl.org/dc/elements/1.1/"
   xmlns:cc="http://creativecommons.org/ns#"
   xmlns:rdf="http://www.w3.org/1999/02/22-rdf-syntax-ns#"
   xmlns:svg="http://www.w3.org/2000/svg"
   xmlns="http://www.w3.org/2000/svg"
   xmlns:sodipodi="http://sodipodi.sourceforge.net/DTD/sodipodi-0.dtd"
   xmlns:inkscape="http://www.inkscape.org/namespaces/inkscape"
   aria-hidden="true"
   focusable="false"
   width="1em"
   height="1em"
   style="-ms-transform: rotate(360deg); -webkit-transform: rotate(360deg); transform: rotate(360deg);"
   preserveAspectRatio="xMidYMid meet"
   viewBox="0 0 16 16"
   version="1.1"
   id="svg6"
   sodipodi:docname="heart-filled.svg"
   inkscape:version="1.0.1 (3bc2e813f5, 2020-09-07)">
  <metadata
     id="metadata12">
    <rdf:RDF>
      <cc:Work
         rdf:about="">
        <dc:format>image/svg+xml</dc:format>
        <dc:type
           rdf:resource="http://purl.org/dc/dcmitype/StillImage" />
        <dc:title></dc:title>
      </cc:Work>
    </rdf:RDF>
  </metadata>
  <defs
     id="defs10" />
  <sodipodi:namedview
     pagecolor="#ffffff"
     bordercolor="#666666"
     borderopacity="1"
     objecttolerance="10"
     gridtolerance="10"
     guidetolerance="10"
     inkscape:pageopacity="0"
     inkscape:pageshadow="2"
     inkscape:window-width="1920"
     inkscape:window-height="1011"
     id="namedview8"
     showgrid="false"
     inkscape:zoom="53.625"
     inkscape:cx="8"
     inkscape:cy="8"
     inkscape:window-x="0"
     inkscape:window-y="0"
     inkscape:window-maximized="1"
     inkscape:current-layer="svg6" />
  <g
     fill="#000000"
     id="g4"
     style="fill:#c5c5c5;fill-opacity:1">
    <path
       d="M 14.88,4.78 C 14.799313,4.4641895 14.674768,4.1612438 14.51,3.88 14.351738,3.5874285 14.149367,3.3209727 13.91,3.09 13.562973,2.7441336 13.152016,2.4690305 12.7,2.28 11.790156,1.9065896 10.769844,1.9065896 9.86,2.28 9.4327656,2.4608384 9.0402474,2.7146217 8.7,3.03 L 8.65,3.09 8,3.74 7.35,3.09 7.3,3.03 C 6.9597526,2.7146217 6.5672344,2.4608384 6.14,2.28 5.230156,1.9065896 4.209844,1.9065896 3.3,2.28 2.8479836,2.4690305 2.4370271,2.7441336 2.09,3.09 1.6153631,3.5518304 1.2793713,4.1372183 1.12,4.78 1.035215,5.1064208 0.99485106,5.4427872 1,5.78 1,6.097 1.04,6.413 1.12,6.72 1.2038338,7.0300438 1.3247041,7.3288622 1.48,7.61 1.6477153,7.8990076 1.8528174,8.1646317 2.09,8.4 L 8,14.31 13.91,8.4 C 14.147,8.167 14.35,7.9 14.51,7.61 14.83479,7.0551059 15.004057,6.422946 15,5.78 15.0052,5.4427852 14.96482,5.106414 14.88,4.78 Z"
       id="path2"
       sodipodi:nodetypes="ccccccccccccccccccccccc"
       style="fill:#c5c5c5;fill-opacity:1" />
  </g>
</svg>
