<?xml version="1.0" encoding="UTF-8" standalone="no"?>
<svg
   xmlns:dc="http://purl.org/dc/elements/1.1/"
   xmlns:cc="http://creativecommons.org/ns#"
   xmlns:rdf="http://www.w3.org/1999/02/22-rdf-syntax-ns#"
   xmlns:svg="http://www.w3.org/2000/svg"
   xmlns="http://www.w3.org/2000/svg"
   xmlns:sodipodi="http://sodipodi.sourceforge.net/DTD/sodipodi-0.dtd"
   xmlns:inkscape="http://www.inkscape.org/namespaces/inkscape"
   viewBox="-13 0 512 512"
   version="1.1"
   id="svg66"
   sodipodi:docname="ninja.svg"
   inkscape:version="1.0.1 (3bc2e813f5, 2020-09-07)">
  <metadata
     id="metadata72">
    <rdf:RDF>
      <cc:Work
         rdf:about="">
        <dc:format>image/svg+xml</dc:format>
        <dc:type
           rdf:resource="http://purl.org/dc/dcmitype/StillImage" />
      </cc:Work>
    </rdf:RDF>
  </metadata>
  <defs
     id="defs70" />
  <sodipodi:namedview
     pagecolor="#ffffff"
     bordercolor="#666666"
     borderopacity="1"
     objecttolerance="10"
     gridtolerance="10"
     guidetolerance="10"
     inkscape:pageopacity="0"
     inkscape:pageshadow="2"
     inkscape:window-width="1920"
     inkscape:window-height="1043"
     id="namedview68"
     showgrid="false"
     inkscape:zoom="1.6757812"
     inkscape:cx="256"
     inkscape:cy="303.73893"
     inkscape:window-x="1920"
     inkscape:window-y="0"
     inkscape:window-maximized="1"
     inkscape:current-layer="svg66" />
  <path
     id="path2"
     d="M 35.482422 261.10156 C 29.728027 261.10156 23.974608 263.29688 19.585938 267.6875 C 10.804688 276.46875 10.804687 290.70312 19.585938 299.48438 L 24 303.89844 L 39.898438 288 C 42.914062 284.98437 47.808594 284.98437 50.824219 288 C 53.84375 291.01953 53.84375 295.91016 50.824219 298.92969 L 34.925781 314.82422 L 42.234375 322.13281 L 58.132812 306.23438 C 61.148438 303.21485 66.039062 303.21485 69.058594 306.23438 C 72.074219 309.25 72.074219 314.14453 69.058594 317.16016 L 53.160156 333.05859 L 79.496094 359.39844 L 111.29688 327.60156 L 51.382812 267.6875 C 46.992188 263.29688 41.236816 261.10156 35.482422 261.10156 z "
     transform="translate(-13)" />
  <path
     d="m66.496094 359.398438 31.796875-31.796876 86.613281 86.613282-31.796875 31.796875zm0 0"
     id="path6" />
  <path
     d="m66.496094 359.394531 15.898437-15.898437 86.613281 86.617187-15.898437 15.898438zm0 0"
     id="path8" />
  <path
     d="m126.050781 327.714844-59.441406 59.4375c-1.824219 1.824218-4.78125 1.824218-6.605469 0l-21.261718-21.257813c-1.824219-1.828125-1.824219-4.785156 0-6.609375l59.4375-59.4375c1.824218-1.828125 4.785156-1.828125 6.609374 0l21.261719 21.257813c1.824219 1.824219 1.824219 4.785156 0 6.609375zm0 0"
     id="path10" />
  <path
     d="m81.855469 365.300781-21.257813-21.261719c-1.824218-1.824218-1.824218-4.785156 0-6.609374l-21.855468 21.855468c-1.824219 1.824219-1.824219 4.78125 0 6.609375l21.261718 21.257813c1.824219 1.824218 4.78125 1.824218 6.609375 0l21.851563-21.851563c-1.824219 1.824219-4.78125 1.824219-6.609375 0zm0 0"
     id="path12" />
  <path
     id="path14"
     d="M 476.76367 261.10156 C 471.00928 261.10156 465.25391 263.29688 460.86328 267.6875 L 400.94922 327.60156 L 432.74609 359.39844 L 459.08594 333.05859 L 443.1875 317.16016 C 440.17187 314.14062 440.17187 309.25 443.1875 306.23438 C 446.20703 303.21485 451.09766 303.21485 454.11328 306.23438 L 470.01172 322.13281 L 477.32031 314.82422 L 461.42188 298.92969 C 458.40233 295.91016 458.40235 291.01953 461.42188 288 C 464.4375 284.98437 469.33203 284.98437 472.34766 288 L 488.24609 303.89844 L 492.66016 299.48438 C 501.44141 290.70312 501.44141 276.46875 492.66016 267.6875 C 488.27148 263.29688 482.51807 261.10156 476.76367 261.10156 z "
     transform="translate(-13)" />
  <path
     d="m333.132812 446.019531-31.796874-31.796875 86.613281-86.617187 31.796875 31.796875zm0 0"
     id="path18" />
  <path
     d="m317.226562 430.117188 86.617188-86.617188 15.898438 15.898438-86.617188 86.617187zm0 0"
     id="path20" />
  <path
     d="m360.195312 327.714844 59.441407 59.4375c1.824219 1.824218 4.78125 1.824218 6.605469 0l21.261718-21.257813c1.824219-1.828125 1.824219-4.785156 0-6.609375l-59.4375-59.4375c-1.824218-1.828125-4.785156-1.828125-6.609375 0l-21.261719 21.257813c-1.824218 1.824219-1.824218 4.785156 0 6.609375zm0 0"
     id="path22" />
  <path
     d="m404.390625 365.300781 21.257813-21.261719c1.824218-1.824218 1.824218-4.785156 0-6.609374l21.855468 21.851562c1.824219 1.828125 1.824219 4.785156 0 6.609375l-21.261718 21.261719c-1.824219 1.824218-4.785157 1.824218-6.609376 0l-21.851562-21.851563c1.824219 1.824219 4.78125 1.824219 6.609375 0zm0 0"
     id="path24" />
  <path
     d="m71.589844 512c0-94.734375 76.796875-171.535156 171.53125-171.535156 94.738281 0 171.535156 76.800781 171.535156 171.535156zm0 0"
     id="path26" />
  <path
     d="M 387.80748,512 H 132.49609 L 280.20861,348.69922 C 342.63589,370.91406 387.80748,435.62109 387.80748,512 Z m 0,0"
     id="path28"
     style="fill:#ffffff;fill-opacity:1;stroke-width:0.951234;opacity:0" />
  <path
     d="m189.527344 511.972656h-57.03125l163.222656-163.273437c13.804688 4.449219 26.847656 10.601562 38.878906 18.203125zm0 0"
     id="path30" />
  <path
     d="m71.589844 512h282.160156l-163.246094-163.300781c-68.992187 22.214843-118.914062 86.921875-118.914062 163.300781zm0 0"
     id="path32"
     style="fill:#ffffff;fill-opacity:1;opacity:0" />
  <path
     d="m259.230469 341.222656c-5.304688-.492187-10.675781-.757812-16.109375-.757812-94.734375 0-171.53125 76.800781-171.53125 171.535156h32.214844c0-89.304688 68.246093-162.65625 155.425781-170.777344zm0 0"
     id="path34" />
  <path
     d="m296.691406 511.972656h57.03125l-163.21875-163.273437c-13.808594 4.449219-26.851562 10.601562-38.882812 18.203125zm0 0"
     id="path36"
     style="fill:#ffffff;fill-opacity:1;opacity:0" />
  <path
     d="m199.78125 357.984375-9.277344-9.285156c-13.808594 4.449219-26.851562 10.601562-38.882812 18.203125l13.59375 13.59375c10.519531-8.820313 22.121094-16.394532 34.566406-22.511719zm0 0"
     id="path38" />
  <path
     d="m427.40625 184.285156c0 101.777344-82.507812 184.28125-184.285156 184.28125-101.773438 0-184.28125-82.503906-184.28125-184.28125s82.507812-184.285156 184.28125-184.285156c101.777344 0 184.285156 82.507812 184.285156 184.285156zm0 0"
     id="path40"
     style="fill:#fffffe;fill-opacity:1;opacity:0" />
  <path
     d="m89.742188 184.285156c0-96.574218 74.289062-175.785156 168.832031-183.636718-5.09375-.421876-10.246094-.648438-15.453125-.648438-101.773438 0-184.28125 82.507812-184.28125 184.285156s82.507812 184.28125 184.28125 184.28125c5.207031 0 10.359375-.226562 15.453125-.648437-94.542969-7.851563-168.832031-87.0625-168.832031-183.632813zm0 0"
     id="path42"
     style="opacity:1" />
  <path
     d="m58.839844 184.285156c0 4.511719.167968 8.984375.488281 13.417969.703125.054687 1.410156.089844 2.121094.089844h363.347656c.710937 0 1.417969-.035157 2.121094-.089844.316406-4.433594.488281-8.90625.488281-13.417969 0-14.035156-1.578125-27.699218-4.546875-40.832031h-359.472656c-2.972657 13.132813-4.546875 26.796875-4.546875 40.832031zm0 0"
     id="path44" />
  <path
     id="path46"
     d="M 172.54297 182.34375 C 149.48047 182.34375 130.78516 201.03516 130.78516 224.10156 C 130.78516 253.89453 161.08984 274.10156 188.59375 262.64844 L 211.57031 253.08203 C 240.08594 241.21094 272.16015 241.21094 300.67188 253.08203 L 323.65234 262.64844 C 351.15625 274.10156 381.46094 253.89453 381.46094 224.10156 C 381.46094 201.03906 362.76563 182.34375 339.70312 182.34375 L 172.54297 182.34375 z M 190.51172 202.40625 C 194.65234 202.40625 198.01172 205.76172 198.01172 209.90625 L 198.01172 221.60156 C 198.01172 225.74609 194.65234 229.10156 190.51172 229.10156 C 186.36719 229.10156 183.01172 225.74609 183.01172 221.60156 L 183.01172 209.90625 C 183.01172 205.76172 186.36719 202.40625 190.51172 202.40625 z M 321.73438 202.40625 C 325.87892 202.40625 329.23438 205.76172 329.23438 209.90625 L 329.23438 221.60156 C 329.23438 225.74609 325.87892 229.10156 321.73438 229.10156 C 317.59375 229.10156 314.23438 225.74609 314.23438 221.60156 L 314.23438 209.90625 C 314.23438 205.76172 317.59375 202.40625 321.73438 202.40625 z "
     transform="translate(-13)" />
  <path
     d="m61.449219 182.34375h363.347656c7.164063 0 12.863281-6.097656 12.28125-13.238281-1.636719-20.109375-6.496094-39.300781-14.070313-57.0625-1.9375-4.539063-6.398437-7.480469-11.332031-7.480469h-337.105469c-4.933593 0-9.394531 2.941406-11.332031 7.480469-7.574219 17.761719-12.433593 36.957031-14.070312 57.0625-.582031 7.140625 5.117187 13.238281 12.28125 13.238281zm0 0"
     id="path48" />
  <path
     d="m80.074219 169.105469c1.636719-20.109375 6.496093-39.300781 14.070312-57.0625 1.933594-4.539063 6.398438-7.480469 11.332031-7.480469h-30.90625c-4.933593 0-9.394531 2.941406-11.332031 7.480469-7.574219 17.761719-12.433593 36.953125-14.070312 57.0625-.582031 7.136719 5.117187 13.234375 12.28125 13.234375h30.90625c-7.164063.003906-12.863281-6.09375-12.28125-13.234375zm0 0"
     id="path50" />
</svg>
